<svg width="687" height="648" viewBox="0 0 687 648" fill="none" xmlns="http://www.w3.org/2000/svg">
<path d="M13 0.5H674C680.904 0.5 686.5 6.09644 686.5 13V635C686.5 641.904 680.904 647.5 674 647.5H465.38C460.881 647.5 456.638 645.412 453.893 641.848L449.722 636.432C445.841 631.393 439.841 628.441 433.48 628.441H253.738C247.464 628.441 241.536 631.314 237.648 636.238L233.111 641.984C230.362 645.467 226.169 647.5 221.731 647.5H13C6.09644 647.5 0.5 641.904 0.5 635V13C0.500001 6.20419 5.92311 0.674839 12.6777 0.503906L13 0.5Z" fill="#1F1F1F" stroke="#D35100"/>
</svg>
