<svg width="1204" height="648" viewBox="0 0 1204 648" fill="none" xmlns="http://www.w3.org/2000/svg">
<path d="M13 1H1191C1197.63 1 1203 6.37258 1203 13V635C1203 641.627 1197.63 647 1191 647H807.617C804.616 647 801.695 646.035 799.284 644.249L782.84 632.067C779.223 629.388 774.84 627.941 770.339 627.941H434.174C429.757 627.941 425.453 629.334 421.873 631.921L404.681 644.347C402.294 646.071 399.425 647 396.48 647H13C6.37258 647 1 641.627 1 635V13C1 6.37258 6.37258 1 13 1Z" fill="#151515" stroke="#F07900" stroke-width="2"/>
</svg>
